<?xml version="1.0" encoding="UTF-8"?>
<svg width="128px" height="128px" viewBox="0 0 128 128" version="1.1" xmlns="http://www.w3.org/2000/svg" xmlns:xlink="http://www.w3.org/1999/xlink">
    <!-- Generator: Sketch 62 (91390) - https://sketch.com -->
    <title>B</title>
    <desc>Created with Sketch.</desc>
    <defs>
        <linearGradient x1="-2.80452875%" y1="50%" x2="100%" y2="50%" id="linearGradient-1">
            <stop stop-color="#011C32" offset="0%"></stop>
            <stop stop-color="#48A178" offset="40.1365538%"></stop>
            <stop stop-color="#BAFFDF" offset="100%"></stop>
        </linearGradient>
    </defs>
    <g id="Page-1" stroke="none" stroke-width="1" fill="none" fill-rule="evenodd">
        <path d="M100.171423,0 C100.578327,0 100.982552,0.00560616115 101.384098,0.0168184835 C94.9458926,0.19002457 89.1798405,1.59374594 84.085249,4.2291799 C78.6349274,7.04863316 74.3288321,10.9146047 71.1669632,15.8270944 C68.0050944,20.7395841 66.4241599,26.2508769 66.4241599,32.3609727 C66.4241599,34.3106037 67.0288982,35.964461 68.2383749,37.3225446 C69.4478516,38.6806282 71.0138595,39.35967 72.9363986,39.35967 C74.8179964,39.35967 76.3741954,38.6639829 77.6049957,37.2726088 C78.8357961,35.8812346 79.4511962,34.1561014 79.4511962,32.0972091 C79.4511962,28.4079336 80.4610837,25.1027798 82.4808586,22.1817477 C84.5006335,19.2607156 87.2863534,16.9239752 90.8380184,15.1715267 C94.3896834,13.4190781 98.3917036,12.5428539 102.844079,12.5428539 C109.05864,12.5428539 114.063724,14.3900524 117.859331,18.0844496 C121.654939,21.7788467 123.552742,26.3695278 123.552742,31.8564928 C123.552742,35.5474756 122.587208,38.9012848 120.656139,41.9179205 C118.725071,44.9345563 116.207602,47.3485477 113.103734,49.1598949 C109.999865,50.9712421 106.655039,51.8769157 103.069257,51.8769157 C101.121129,51.8769157 99.4877385,52.5367515 98.1690848,53.8564229 C96.8504311,55.1760943 96.1911042,56.8107456 96.1911042,58.7603766 C96.1911042,60.7868319 96.8504311,62.4680046 98.1690848,63.8038945 C99.4877385,65.1397844 101.121129,65.8077293 103.069257,65.8077293 C107.780927,65.8077293 112.017934,66.9195482 115.780277,69.1431861 C119.542619,71.3668239 122.519825,74.4218718 124.711895,78.3083298 C126.903965,82.1947878 128,86.6979745 128,91.8178899 C128,99.254486 125.656959,105.231846 120.970876,109.749971 C116.284794,114.268096 109.885144,116.527158 101.771926,116.527158 C96.7088421,116.527158 92.1174366,115.369245 87.9977099,113.053418 C83.8779833,110.737591 80.6338051,107.619376 78.2651755,103.698774 C75.8965459,99.7781719 74.7122311,95.3885145 74.7122311,90.5298018 C74.7122311,88.4709095 74.1160222,86.7440691 72.9236045,85.3492805 C71.7311867,83.954492 70.1566493,83.2570977 68.1999924,83.2570977 C66.2774533,83.2570977 64.7114454,83.954492 63.5019687,85.3492805 C62.292492,86.7440691 61.6877537,88.4709095 61.6877537,90.5298018 C61.6877537,97.8844519 63.4512184,104.482382 66.978148,110.323593 C70.5050776,116.164804 75.3404255,120.768716 81.4841918,124.135329 C84.6503277,125.870283 88.0376627,127.158191 91.6461967,127.999052 L63.2503724,127.999593 C61.1909988,127.999593 59.4761991,127.350427 58.1059733,126.052096 C56.7357474,124.753765 56.0506345,123.053813 56.0506345,120.95224 L56.0506345,120.95224 L56.0506345,7.04735276 C56.0506345,4.98846045 56.6824877,3.29917859 57.9461943,1.97950715 C59.2099008,0.659835717 60.7988141,0 62.712934,0 L62.712934,0 Z M0,57.8907989 L0,27.0978207 L21.9526295,27.0978207 C26.302544,27.0978207 29.8850971,28.3617215 32.7002891,30.889523 C35.515481,33.4173245 36.9230769,37.1766867 36.9230769,42.1676096 C36.9230769,47.2166126 35.515481,51.0993949 32.7002891,53.8159565 C29.8850971,56.5325181 26.302544,57.8907989 21.9526295,57.8907989 L0,57.8907989 Z M27.8617379,112.08644 L2.46153846,112.08644 L2.46153846,71.4397092 L27.8617379,71.4397092 C31.5598372,71.4397092 34.8284424,72.23681 37.6675536,73.8310115 C40.5066648,75.425213 42.7333888,77.6899742 44.3477256,80.6252951 C45.9620624,83.5606159 46.7692308,87.076728 46.7692308,91.1736312 C46.7692308,95.5459686 45.9620624,99.2906478 44.3477256,102.407669 C42.7333888,105.52469 40.5066648,107.917073 37.6675536,109.58482 C34.8284424,111.252567 31.5598372,112.08644 27.8617379,112.08644 L27.8617379,112.08644 Z" id="B" fill="url(#linearGradient-1)" fill-rule="nonzero"></path>
    </g>
</svg>